G04 EAGLE Gerber RS-274X export*
G75*
%MOMM*%
%FSLAX34Y34*%
%LPD*%
%INSolderpaste Top*%
%IPPOS*%
%AMOC8*
5,1,8,0,0,1.08239X$1,22.5*%
G01*
%ADD10R,2.000000X1.200000*%
%ADD11R,1.350000X0.600000*%
%ADD12R,1.100000X1.000000*%
%ADD13C,0.300000*%
%ADD14R,0.800000X0.500000*%


D10*
X14050Y155000D03*
X14050Y99000D03*
D11*
X50800Y142000D03*
X50800Y132000D03*
X50800Y122000D03*
X50800Y112000D03*
D10*
X239950Y99000D03*
X239950Y155000D03*
D11*
X203200Y112000D03*
X203200Y122000D03*
X203200Y132000D03*
X203200Y142000D03*
D12*
X16900Y82550D03*
X33900Y82550D03*
D13*
X30670Y73350D02*
X30670Y66350D01*
X30670Y73350D02*
X37670Y73350D01*
X37670Y66350D01*
X30670Y66350D01*
X30670Y69200D02*
X37670Y69200D01*
X37670Y72050D02*
X30670Y72050D01*
X13130Y73350D02*
X13130Y66350D01*
X13130Y73350D02*
X20130Y73350D01*
X20130Y66350D01*
X13130Y66350D01*
X13130Y69200D02*
X20130Y69200D01*
X20130Y72050D02*
X13130Y72050D01*
D12*
X135500Y165100D03*
X118500Y165100D03*
X173600Y165100D03*
X156600Y165100D03*
X118500Y76200D03*
X135500Y76200D03*
X80400Y165100D03*
X97400Y165100D03*
D14*
X142000Y137000D03*
X142000Y127000D03*
X142000Y117000D03*
X112000Y117000D03*
X112000Y127000D03*
X112000Y137000D03*
D10*
X273130Y155000D03*
X273130Y99000D03*
D11*
X309880Y142000D03*
X309880Y132000D03*
X309880Y122000D03*
X309880Y112000D03*
D10*
X499030Y99000D03*
X499030Y155000D03*
D11*
X462280Y112000D03*
X462280Y122000D03*
X462280Y132000D03*
X462280Y142000D03*
D12*
X275980Y82550D03*
X292980Y82550D03*
D13*
X289750Y73350D02*
X289750Y66350D01*
X289750Y73350D02*
X296750Y73350D01*
X296750Y66350D01*
X289750Y66350D01*
X289750Y69200D02*
X296750Y69200D01*
X296750Y72050D02*
X289750Y72050D01*
X272210Y73350D02*
X272210Y66350D01*
X272210Y73350D02*
X279210Y73350D01*
X279210Y66350D01*
X272210Y66350D01*
X272210Y69200D02*
X279210Y69200D01*
X279210Y72050D02*
X272210Y72050D01*
D12*
X394580Y165100D03*
X377580Y165100D03*
X432680Y165100D03*
X415680Y165100D03*
X377580Y76200D03*
X394580Y76200D03*
X339480Y165100D03*
X356480Y165100D03*
D14*
X401080Y137000D03*
X401080Y127000D03*
X401080Y117000D03*
X371080Y117000D03*
X371080Y127000D03*
X371080Y137000D03*
D10*
X532210Y155000D03*
X532210Y99000D03*
D11*
X568960Y142000D03*
X568960Y132000D03*
X568960Y122000D03*
X568960Y112000D03*
D10*
X758110Y99000D03*
X758110Y155000D03*
D11*
X721360Y112000D03*
X721360Y122000D03*
X721360Y132000D03*
X721360Y142000D03*
D12*
X535060Y82550D03*
X552060Y82550D03*
D13*
X548830Y73350D02*
X548830Y66350D01*
X548830Y73350D02*
X555830Y73350D01*
X555830Y66350D01*
X548830Y66350D01*
X548830Y69200D02*
X555830Y69200D01*
X555830Y72050D02*
X548830Y72050D01*
X531290Y73350D02*
X531290Y66350D01*
X531290Y73350D02*
X538290Y73350D01*
X538290Y66350D01*
X531290Y66350D01*
X531290Y69200D02*
X538290Y69200D01*
X538290Y72050D02*
X531290Y72050D01*
D12*
X653660Y165100D03*
X636660Y165100D03*
X691760Y165100D03*
X674760Y165100D03*
X636660Y76200D03*
X653660Y76200D03*
X598560Y165100D03*
X615560Y165100D03*
D14*
X660160Y137000D03*
X660160Y127000D03*
X660160Y117000D03*
X630160Y117000D03*
X630160Y127000D03*
X630160Y137000D03*
D10*
X791290Y155000D03*
X791290Y99000D03*
D11*
X828040Y142000D03*
X828040Y132000D03*
X828040Y122000D03*
X828040Y112000D03*
D10*
X1017190Y99000D03*
X1017190Y155000D03*
D11*
X980440Y112000D03*
X980440Y122000D03*
X980440Y132000D03*
X980440Y142000D03*
D12*
X794140Y82550D03*
X811140Y82550D03*
D13*
X807910Y73350D02*
X807910Y66350D01*
X807910Y73350D02*
X814910Y73350D01*
X814910Y66350D01*
X807910Y66350D01*
X807910Y69200D02*
X814910Y69200D01*
X814910Y72050D02*
X807910Y72050D01*
X790370Y73350D02*
X790370Y66350D01*
X790370Y73350D02*
X797370Y73350D01*
X797370Y66350D01*
X790370Y66350D01*
X790370Y69200D02*
X797370Y69200D01*
X797370Y72050D02*
X790370Y72050D01*
D12*
X912740Y165100D03*
X895740Y165100D03*
X950840Y165100D03*
X933840Y165100D03*
X895740Y76200D03*
X912740Y76200D03*
X857640Y165100D03*
X874640Y165100D03*
D14*
X919240Y137000D03*
X919240Y127000D03*
X919240Y117000D03*
X889240Y117000D03*
X889240Y127000D03*
X889240Y137000D03*
D10*
X1050370Y155000D03*
X1050370Y99000D03*
D11*
X1087120Y142000D03*
X1087120Y132000D03*
X1087120Y122000D03*
X1087120Y112000D03*
D10*
X1276270Y99000D03*
X1276270Y155000D03*
D11*
X1239520Y112000D03*
X1239520Y122000D03*
X1239520Y132000D03*
X1239520Y142000D03*
D12*
X1053220Y82550D03*
X1070220Y82550D03*
D13*
X1066990Y73350D02*
X1066990Y66350D01*
X1066990Y73350D02*
X1073990Y73350D01*
X1073990Y66350D01*
X1066990Y66350D01*
X1066990Y69200D02*
X1073990Y69200D01*
X1073990Y72050D02*
X1066990Y72050D01*
X1049450Y73350D02*
X1049450Y66350D01*
X1049450Y73350D02*
X1056450Y73350D01*
X1056450Y66350D01*
X1049450Y66350D01*
X1049450Y69200D02*
X1056450Y69200D01*
X1056450Y72050D02*
X1049450Y72050D01*
D12*
X1171820Y165100D03*
X1154820Y165100D03*
X1209920Y165100D03*
X1192920Y165100D03*
X1154820Y76200D03*
X1171820Y76200D03*
X1116720Y165100D03*
X1133720Y165100D03*
D14*
X1178320Y137000D03*
X1178320Y127000D03*
X1178320Y117000D03*
X1148320Y117000D03*
X1148320Y127000D03*
X1148320Y137000D03*
D10*
X14050Y414080D03*
X14050Y358080D03*
D11*
X50800Y401080D03*
X50800Y391080D03*
X50800Y381080D03*
X50800Y371080D03*
D10*
X239950Y358080D03*
X239950Y414080D03*
D11*
X203200Y371080D03*
X203200Y381080D03*
X203200Y391080D03*
X203200Y401080D03*
D12*
X16900Y341630D03*
X33900Y341630D03*
D13*
X30670Y332430D02*
X30670Y325430D01*
X30670Y332430D02*
X37670Y332430D01*
X37670Y325430D01*
X30670Y325430D01*
X30670Y328280D02*
X37670Y328280D01*
X37670Y331130D02*
X30670Y331130D01*
X13130Y332430D02*
X13130Y325430D01*
X13130Y332430D02*
X20130Y332430D01*
X20130Y325430D01*
X13130Y325430D01*
X13130Y328280D02*
X20130Y328280D01*
X20130Y331130D02*
X13130Y331130D01*
D12*
X135500Y424180D03*
X118500Y424180D03*
X173600Y424180D03*
X156600Y424180D03*
X118500Y335280D03*
X135500Y335280D03*
X80400Y424180D03*
X97400Y424180D03*
D14*
X142000Y396080D03*
X142000Y386080D03*
X142000Y376080D03*
X112000Y376080D03*
X112000Y386080D03*
X112000Y396080D03*
D10*
X273130Y414080D03*
X273130Y358080D03*
D11*
X309880Y401080D03*
X309880Y391080D03*
X309880Y381080D03*
X309880Y371080D03*
D10*
X499030Y358080D03*
X499030Y414080D03*
D11*
X462280Y371080D03*
X462280Y381080D03*
X462280Y391080D03*
X462280Y401080D03*
D12*
X275980Y341630D03*
X292980Y341630D03*
D13*
X289750Y332430D02*
X289750Y325430D01*
X289750Y332430D02*
X296750Y332430D01*
X296750Y325430D01*
X289750Y325430D01*
X289750Y328280D02*
X296750Y328280D01*
X296750Y331130D02*
X289750Y331130D01*
X272210Y332430D02*
X272210Y325430D01*
X272210Y332430D02*
X279210Y332430D01*
X279210Y325430D01*
X272210Y325430D01*
X272210Y328280D02*
X279210Y328280D01*
X279210Y331130D02*
X272210Y331130D01*
D12*
X394580Y424180D03*
X377580Y424180D03*
X432680Y424180D03*
X415680Y424180D03*
X377580Y335280D03*
X394580Y335280D03*
X339480Y424180D03*
X356480Y424180D03*
D14*
X401080Y396080D03*
X401080Y386080D03*
X401080Y376080D03*
X371080Y376080D03*
X371080Y386080D03*
X371080Y396080D03*
D10*
X532210Y414080D03*
X532210Y358080D03*
D11*
X568960Y401080D03*
X568960Y391080D03*
X568960Y381080D03*
X568960Y371080D03*
D10*
X758110Y358080D03*
X758110Y414080D03*
D11*
X721360Y371080D03*
X721360Y381080D03*
X721360Y391080D03*
X721360Y401080D03*
D12*
X535060Y341630D03*
X552060Y341630D03*
D13*
X548830Y332430D02*
X548830Y325430D01*
X548830Y332430D02*
X555830Y332430D01*
X555830Y325430D01*
X548830Y325430D01*
X548830Y328280D02*
X555830Y328280D01*
X555830Y331130D02*
X548830Y331130D01*
X531290Y332430D02*
X531290Y325430D01*
X531290Y332430D02*
X538290Y332430D01*
X538290Y325430D01*
X531290Y325430D01*
X531290Y328280D02*
X538290Y328280D01*
X538290Y331130D02*
X531290Y331130D01*
D12*
X653660Y424180D03*
X636660Y424180D03*
X691760Y424180D03*
X674760Y424180D03*
X636660Y335280D03*
X653660Y335280D03*
X598560Y424180D03*
X615560Y424180D03*
D14*
X660160Y396080D03*
X660160Y386080D03*
X660160Y376080D03*
X630160Y376080D03*
X630160Y386080D03*
X630160Y396080D03*
D10*
X791290Y414080D03*
X791290Y358080D03*
D11*
X828040Y401080D03*
X828040Y391080D03*
X828040Y381080D03*
X828040Y371080D03*
D10*
X1017190Y358080D03*
X1017190Y414080D03*
D11*
X980440Y371080D03*
X980440Y381080D03*
X980440Y391080D03*
X980440Y401080D03*
D12*
X794140Y341630D03*
X811140Y341630D03*
D13*
X807910Y332430D02*
X807910Y325430D01*
X807910Y332430D02*
X814910Y332430D01*
X814910Y325430D01*
X807910Y325430D01*
X807910Y328280D02*
X814910Y328280D01*
X814910Y331130D02*
X807910Y331130D01*
X790370Y332430D02*
X790370Y325430D01*
X790370Y332430D02*
X797370Y332430D01*
X797370Y325430D01*
X790370Y325430D01*
X790370Y328280D02*
X797370Y328280D01*
X797370Y331130D02*
X790370Y331130D01*
D12*
X912740Y424180D03*
X895740Y424180D03*
X950840Y424180D03*
X933840Y424180D03*
X895740Y335280D03*
X912740Y335280D03*
X857640Y424180D03*
X874640Y424180D03*
D14*
X919240Y396080D03*
X919240Y386080D03*
X919240Y376080D03*
X889240Y376080D03*
X889240Y386080D03*
X889240Y396080D03*
D10*
X1050370Y414080D03*
X1050370Y358080D03*
D11*
X1087120Y401080D03*
X1087120Y391080D03*
X1087120Y381080D03*
X1087120Y371080D03*
D10*
X1276270Y358080D03*
X1276270Y414080D03*
D11*
X1239520Y371080D03*
X1239520Y381080D03*
X1239520Y391080D03*
X1239520Y401080D03*
D12*
X1053220Y341630D03*
X1070220Y341630D03*
D13*
X1066990Y332430D02*
X1066990Y325430D01*
X1066990Y332430D02*
X1073990Y332430D01*
X1073990Y325430D01*
X1066990Y325430D01*
X1066990Y328280D02*
X1073990Y328280D01*
X1073990Y331130D02*
X1066990Y331130D01*
X1049450Y332430D02*
X1049450Y325430D01*
X1049450Y332430D02*
X1056450Y332430D01*
X1056450Y325430D01*
X1049450Y325430D01*
X1049450Y328280D02*
X1056450Y328280D01*
X1056450Y331130D02*
X1049450Y331130D01*
D12*
X1171820Y424180D03*
X1154820Y424180D03*
X1209920Y424180D03*
X1192920Y424180D03*
X1154820Y335280D03*
X1171820Y335280D03*
X1116720Y424180D03*
X1133720Y424180D03*
D14*
X1178320Y396080D03*
X1178320Y386080D03*
X1178320Y376080D03*
X1148320Y376080D03*
X1148320Y386080D03*
X1148320Y396080D03*
D10*
X14050Y673160D03*
X14050Y617160D03*
D11*
X50800Y660160D03*
X50800Y650160D03*
X50800Y640160D03*
X50800Y630160D03*
D10*
X239950Y617160D03*
X239950Y673160D03*
D11*
X203200Y630160D03*
X203200Y640160D03*
X203200Y650160D03*
X203200Y660160D03*
D12*
X16900Y600710D03*
X33900Y600710D03*
D13*
X30670Y591510D02*
X30670Y584510D01*
X30670Y591510D02*
X37670Y591510D01*
X37670Y584510D01*
X30670Y584510D01*
X30670Y587360D02*
X37670Y587360D01*
X37670Y590210D02*
X30670Y590210D01*
X13130Y591510D02*
X13130Y584510D01*
X13130Y591510D02*
X20130Y591510D01*
X20130Y584510D01*
X13130Y584510D01*
X13130Y587360D02*
X20130Y587360D01*
X20130Y590210D02*
X13130Y590210D01*
D12*
X135500Y683260D03*
X118500Y683260D03*
X173600Y683260D03*
X156600Y683260D03*
X118500Y594360D03*
X135500Y594360D03*
X80400Y683260D03*
X97400Y683260D03*
D14*
X142000Y655160D03*
X142000Y645160D03*
X142000Y635160D03*
X112000Y635160D03*
X112000Y645160D03*
X112000Y655160D03*
D10*
X273130Y673160D03*
X273130Y617160D03*
D11*
X309880Y660160D03*
X309880Y650160D03*
X309880Y640160D03*
X309880Y630160D03*
D10*
X499030Y617160D03*
X499030Y673160D03*
D11*
X462280Y630160D03*
X462280Y640160D03*
X462280Y650160D03*
X462280Y660160D03*
D12*
X275980Y600710D03*
X292980Y600710D03*
D13*
X289750Y591510D02*
X289750Y584510D01*
X289750Y591510D02*
X296750Y591510D01*
X296750Y584510D01*
X289750Y584510D01*
X289750Y587360D02*
X296750Y587360D01*
X296750Y590210D02*
X289750Y590210D01*
X272210Y591510D02*
X272210Y584510D01*
X272210Y591510D02*
X279210Y591510D01*
X279210Y584510D01*
X272210Y584510D01*
X272210Y587360D02*
X279210Y587360D01*
X279210Y590210D02*
X272210Y590210D01*
D12*
X394580Y683260D03*
X377580Y683260D03*
X432680Y683260D03*
X415680Y683260D03*
X377580Y594360D03*
X394580Y594360D03*
X339480Y683260D03*
X356480Y683260D03*
D14*
X401080Y655160D03*
X401080Y645160D03*
X401080Y635160D03*
X371080Y635160D03*
X371080Y645160D03*
X371080Y655160D03*
D10*
X532210Y673160D03*
X532210Y617160D03*
D11*
X568960Y660160D03*
X568960Y650160D03*
X568960Y640160D03*
X568960Y630160D03*
D10*
X758110Y617160D03*
X758110Y673160D03*
D11*
X721360Y630160D03*
X721360Y640160D03*
X721360Y650160D03*
X721360Y660160D03*
D12*
X535060Y600710D03*
X552060Y600710D03*
D13*
X548830Y591510D02*
X548830Y584510D01*
X548830Y591510D02*
X555830Y591510D01*
X555830Y584510D01*
X548830Y584510D01*
X548830Y587360D02*
X555830Y587360D01*
X555830Y590210D02*
X548830Y590210D01*
X531290Y591510D02*
X531290Y584510D01*
X531290Y591510D02*
X538290Y591510D01*
X538290Y584510D01*
X531290Y584510D01*
X531290Y587360D02*
X538290Y587360D01*
X538290Y590210D02*
X531290Y590210D01*
D12*
X653660Y683260D03*
X636660Y683260D03*
X691760Y683260D03*
X674760Y683260D03*
X636660Y594360D03*
X653660Y594360D03*
X598560Y683260D03*
X615560Y683260D03*
D14*
X660160Y655160D03*
X660160Y645160D03*
X660160Y635160D03*
X630160Y635160D03*
X630160Y645160D03*
X630160Y655160D03*
D10*
X791290Y673160D03*
X791290Y617160D03*
D11*
X828040Y660160D03*
X828040Y650160D03*
X828040Y640160D03*
X828040Y630160D03*
D10*
X1017190Y617160D03*
X1017190Y673160D03*
D11*
X980440Y630160D03*
X980440Y640160D03*
X980440Y650160D03*
X980440Y660160D03*
D12*
X794140Y600710D03*
X811140Y600710D03*
D13*
X807910Y591510D02*
X807910Y584510D01*
X807910Y591510D02*
X814910Y591510D01*
X814910Y584510D01*
X807910Y584510D01*
X807910Y587360D02*
X814910Y587360D01*
X814910Y590210D02*
X807910Y590210D01*
X790370Y591510D02*
X790370Y584510D01*
X790370Y591510D02*
X797370Y591510D01*
X797370Y584510D01*
X790370Y584510D01*
X790370Y587360D02*
X797370Y587360D01*
X797370Y590210D02*
X790370Y590210D01*
D12*
X912740Y683260D03*
X895740Y683260D03*
X950840Y683260D03*
X933840Y683260D03*
X895740Y594360D03*
X912740Y594360D03*
X857640Y683260D03*
X874640Y683260D03*
D14*
X919240Y655160D03*
X919240Y645160D03*
X919240Y635160D03*
X889240Y635160D03*
X889240Y645160D03*
X889240Y655160D03*
D10*
X1050370Y673160D03*
X1050370Y617160D03*
D11*
X1087120Y660160D03*
X1087120Y650160D03*
X1087120Y640160D03*
X1087120Y630160D03*
D10*
X1276270Y617160D03*
X1276270Y673160D03*
D11*
X1239520Y630160D03*
X1239520Y640160D03*
X1239520Y650160D03*
X1239520Y660160D03*
D12*
X1053220Y600710D03*
X1070220Y600710D03*
D13*
X1066990Y591510D02*
X1066990Y584510D01*
X1066990Y591510D02*
X1073990Y591510D01*
X1073990Y584510D01*
X1066990Y584510D01*
X1066990Y587360D02*
X1073990Y587360D01*
X1073990Y590210D02*
X1066990Y590210D01*
X1049450Y591510D02*
X1049450Y584510D01*
X1049450Y591510D02*
X1056450Y591510D01*
X1056450Y584510D01*
X1049450Y584510D01*
X1049450Y587360D02*
X1056450Y587360D01*
X1056450Y590210D02*
X1049450Y590210D01*
D12*
X1171820Y683260D03*
X1154820Y683260D03*
X1209920Y683260D03*
X1192920Y683260D03*
X1154820Y594360D03*
X1171820Y594360D03*
X1116720Y683260D03*
X1133720Y683260D03*
D14*
X1178320Y655160D03*
X1178320Y645160D03*
X1178320Y635160D03*
X1148320Y635160D03*
X1148320Y645160D03*
X1148320Y655160D03*
D10*
X14050Y932240D03*
X14050Y876240D03*
D11*
X50800Y919240D03*
X50800Y909240D03*
X50800Y899240D03*
X50800Y889240D03*
D10*
X239950Y876240D03*
X239950Y932240D03*
D11*
X203200Y889240D03*
X203200Y899240D03*
X203200Y909240D03*
X203200Y919240D03*
D12*
X16900Y859790D03*
X33900Y859790D03*
D13*
X30670Y850590D02*
X30670Y843590D01*
X30670Y850590D02*
X37670Y850590D01*
X37670Y843590D01*
X30670Y843590D01*
X30670Y846440D02*
X37670Y846440D01*
X37670Y849290D02*
X30670Y849290D01*
X13130Y850590D02*
X13130Y843590D01*
X13130Y850590D02*
X20130Y850590D01*
X20130Y843590D01*
X13130Y843590D01*
X13130Y846440D02*
X20130Y846440D01*
X20130Y849290D02*
X13130Y849290D01*
D12*
X135500Y942340D03*
X118500Y942340D03*
X173600Y942340D03*
X156600Y942340D03*
X118500Y853440D03*
X135500Y853440D03*
X80400Y942340D03*
X97400Y942340D03*
D14*
X142000Y914240D03*
X142000Y904240D03*
X142000Y894240D03*
X112000Y894240D03*
X112000Y904240D03*
X112000Y914240D03*
D10*
X273130Y932240D03*
X273130Y876240D03*
D11*
X309880Y919240D03*
X309880Y909240D03*
X309880Y899240D03*
X309880Y889240D03*
D10*
X499030Y876240D03*
X499030Y932240D03*
D11*
X462280Y889240D03*
X462280Y899240D03*
X462280Y909240D03*
X462280Y919240D03*
D12*
X275980Y859790D03*
X292980Y859790D03*
D13*
X289750Y850590D02*
X289750Y843590D01*
X289750Y850590D02*
X296750Y850590D01*
X296750Y843590D01*
X289750Y843590D01*
X289750Y846440D02*
X296750Y846440D01*
X296750Y849290D02*
X289750Y849290D01*
X272210Y850590D02*
X272210Y843590D01*
X272210Y850590D02*
X279210Y850590D01*
X279210Y843590D01*
X272210Y843590D01*
X272210Y846440D02*
X279210Y846440D01*
X279210Y849290D02*
X272210Y849290D01*
D12*
X394580Y942340D03*
X377580Y942340D03*
X432680Y942340D03*
X415680Y942340D03*
X377580Y853440D03*
X394580Y853440D03*
X339480Y942340D03*
X356480Y942340D03*
D14*
X401080Y914240D03*
X401080Y904240D03*
X401080Y894240D03*
X371080Y894240D03*
X371080Y904240D03*
X371080Y914240D03*
D10*
X532210Y932240D03*
X532210Y876240D03*
D11*
X568960Y919240D03*
X568960Y909240D03*
X568960Y899240D03*
X568960Y889240D03*
D10*
X758110Y876240D03*
X758110Y932240D03*
D11*
X721360Y889240D03*
X721360Y899240D03*
X721360Y909240D03*
X721360Y919240D03*
D12*
X535060Y859790D03*
X552060Y859790D03*
D13*
X548830Y850590D02*
X548830Y843590D01*
X548830Y850590D02*
X555830Y850590D01*
X555830Y843590D01*
X548830Y843590D01*
X548830Y846440D02*
X555830Y846440D01*
X555830Y849290D02*
X548830Y849290D01*
X531290Y850590D02*
X531290Y843590D01*
X531290Y850590D02*
X538290Y850590D01*
X538290Y843590D01*
X531290Y843590D01*
X531290Y846440D02*
X538290Y846440D01*
X538290Y849290D02*
X531290Y849290D01*
D12*
X653660Y942340D03*
X636660Y942340D03*
X691760Y942340D03*
X674760Y942340D03*
X636660Y853440D03*
X653660Y853440D03*
X598560Y942340D03*
X615560Y942340D03*
D14*
X660160Y914240D03*
X660160Y904240D03*
X660160Y894240D03*
X630160Y894240D03*
X630160Y904240D03*
X630160Y914240D03*
D10*
X791290Y932240D03*
X791290Y876240D03*
D11*
X828040Y919240D03*
X828040Y909240D03*
X828040Y899240D03*
X828040Y889240D03*
D10*
X1017190Y876240D03*
X1017190Y932240D03*
D11*
X980440Y889240D03*
X980440Y899240D03*
X980440Y909240D03*
X980440Y919240D03*
D12*
X794140Y859790D03*
X811140Y859790D03*
D13*
X807910Y850590D02*
X807910Y843590D01*
X807910Y850590D02*
X814910Y850590D01*
X814910Y843590D01*
X807910Y843590D01*
X807910Y846440D02*
X814910Y846440D01*
X814910Y849290D02*
X807910Y849290D01*
X790370Y850590D02*
X790370Y843590D01*
X790370Y850590D02*
X797370Y850590D01*
X797370Y843590D01*
X790370Y843590D01*
X790370Y846440D02*
X797370Y846440D01*
X797370Y849290D02*
X790370Y849290D01*
D12*
X912740Y942340D03*
X895740Y942340D03*
X950840Y942340D03*
X933840Y942340D03*
X895740Y853440D03*
X912740Y853440D03*
X857640Y942340D03*
X874640Y942340D03*
D14*
X919240Y914240D03*
X919240Y904240D03*
X919240Y894240D03*
X889240Y894240D03*
X889240Y904240D03*
X889240Y914240D03*
D10*
X1050370Y932240D03*
X1050370Y876240D03*
D11*
X1087120Y919240D03*
X1087120Y909240D03*
X1087120Y899240D03*
X1087120Y889240D03*
D10*
X1276270Y876240D03*
X1276270Y932240D03*
D11*
X1239520Y889240D03*
X1239520Y899240D03*
X1239520Y909240D03*
X1239520Y919240D03*
D12*
X1053220Y859790D03*
X1070220Y859790D03*
D13*
X1066990Y850590D02*
X1066990Y843590D01*
X1066990Y850590D02*
X1073990Y850590D01*
X1073990Y843590D01*
X1066990Y843590D01*
X1066990Y846440D02*
X1073990Y846440D01*
X1073990Y849290D02*
X1066990Y849290D01*
X1049450Y850590D02*
X1049450Y843590D01*
X1049450Y850590D02*
X1056450Y850590D01*
X1056450Y843590D01*
X1049450Y843590D01*
X1049450Y846440D02*
X1056450Y846440D01*
X1056450Y849290D02*
X1049450Y849290D01*
D12*
X1171820Y942340D03*
X1154820Y942340D03*
X1209920Y942340D03*
X1192920Y942340D03*
X1154820Y853440D03*
X1171820Y853440D03*
X1116720Y942340D03*
X1133720Y942340D03*
D14*
X1178320Y914240D03*
X1178320Y904240D03*
X1178320Y894240D03*
X1148320Y894240D03*
X1148320Y904240D03*
X1148320Y914240D03*
D10*
X14050Y1191320D03*
X14050Y1135320D03*
D11*
X50800Y1178320D03*
X50800Y1168320D03*
X50800Y1158320D03*
X50800Y1148320D03*
D10*
X239950Y1135320D03*
X239950Y1191320D03*
D11*
X203200Y1148320D03*
X203200Y1158320D03*
X203200Y1168320D03*
X203200Y1178320D03*
D12*
X16900Y1118870D03*
X33900Y1118870D03*
D13*
X30670Y1109670D02*
X30670Y1102670D01*
X30670Y1109670D02*
X37670Y1109670D01*
X37670Y1102670D01*
X30670Y1102670D01*
X30670Y1105520D02*
X37670Y1105520D01*
X37670Y1108370D02*
X30670Y1108370D01*
X13130Y1109670D02*
X13130Y1102670D01*
X13130Y1109670D02*
X20130Y1109670D01*
X20130Y1102670D01*
X13130Y1102670D01*
X13130Y1105520D02*
X20130Y1105520D01*
X20130Y1108370D02*
X13130Y1108370D01*
D12*
X135500Y1201420D03*
X118500Y1201420D03*
X173600Y1201420D03*
X156600Y1201420D03*
X118500Y1112520D03*
X135500Y1112520D03*
X80400Y1201420D03*
X97400Y1201420D03*
D14*
X142000Y1173320D03*
X142000Y1163320D03*
X142000Y1153320D03*
X112000Y1153320D03*
X112000Y1163320D03*
X112000Y1173320D03*
D10*
X273130Y1191320D03*
X273130Y1135320D03*
D11*
X309880Y1178320D03*
X309880Y1168320D03*
X309880Y1158320D03*
X309880Y1148320D03*
D10*
X499030Y1135320D03*
X499030Y1191320D03*
D11*
X462280Y1148320D03*
X462280Y1158320D03*
X462280Y1168320D03*
X462280Y1178320D03*
D12*
X275980Y1118870D03*
X292980Y1118870D03*
D13*
X289750Y1109670D02*
X289750Y1102670D01*
X289750Y1109670D02*
X296750Y1109670D01*
X296750Y1102670D01*
X289750Y1102670D01*
X289750Y1105520D02*
X296750Y1105520D01*
X296750Y1108370D02*
X289750Y1108370D01*
X272210Y1109670D02*
X272210Y1102670D01*
X272210Y1109670D02*
X279210Y1109670D01*
X279210Y1102670D01*
X272210Y1102670D01*
X272210Y1105520D02*
X279210Y1105520D01*
X279210Y1108370D02*
X272210Y1108370D01*
D12*
X394580Y1201420D03*
X377580Y1201420D03*
X432680Y1201420D03*
X415680Y1201420D03*
X377580Y1112520D03*
X394580Y1112520D03*
X339480Y1201420D03*
X356480Y1201420D03*
D14*
X401080Y1173320D03*
X401080Y1163320D03*
X401080Y1153320D03*
X371080Y1153320D03*
X371080Y1163320D03*
X371080Y1173320D03*
D10*
X532210Y1191320D03*
X532210Y1135320D03*
D11*
X568960Y1178320D03*
X568960Y1168320D03*
X568960Y1158320D03*
X568960Y1148320D03*
D10*
X758110Y1135320D03*
X758110Y1191320D03*
D11*
X721360Y1148320D03*
X721360Y1158320D03*
X721360Y1168320D03*
X721360Y1178320D03*
D12*
X535060Y1118870D03*
X552060Y1118870D03*
D13*
X548830Y1109670D02*
X548830Y1102670D01*
X548830Y1109670D02*
X555830Y1109670D01*
X555830Y1102670D01*
X548830Y1102670D01*
X548830Y1105520D02*
X555830Y1105520D01*
X555830Y1108370D02*
X548830Y1108370D01*
X531290Y1109670D02*
X531290Y1102670D01*
X531290Y1109670D02*
X538290Y1109670D01*
X538290Y1102670D01*
X531290Y1102670D01*
X531290Y1105520D02*
X538290Y1105520D01*
X538290Y1108370D02*
X531290Y1108370D01*
D12*
X653660Y1201420D03*
X636660Y1201420D03*
X691760Y1201420D03*
X674760Y1201420D03*
X636660Y1112520D03*
X653660Y1112520D03*
X598560Y1201420D03*
X615560Y1201420D03*
D14*
X660160Y1173320D03*
X660160Y1163320D03*
X660160Y1153320D03*
X630160Y1153320D03*
X630160Y1163320D03*
X630160Y1173320D03*
D10*
X791290Y1191320D03*
X791290Y1135320D03*
D11*
X828040Y1178320D03*
X828040Y1168320D03*
X828040Y1158320D03*
X828040Y1148320D03*
D10*
X1017190Y1135320D03*
X1017190Y1191320D03*
D11*
X980440Y1148320D03*
X980440Y1158320D03*
X980440Y1168320D03*
X980440Y1178320D03*
D12*
X794140Y1118870D03*
X811140Y1118870D03*
D13*
X807910Y1109670D02*
X807910Y1102670D01*
X807910Y1109670D02*
X814910Y1109670D01*
X814910Y1102670D01*
X807910Y1102670D01*
X807910Y1105520D02*
X814910Y1105520D01*
X814910Y1108370D02*
X807910Y1108370D01*
X790370Y1109670D02*
X790370Y1102670D01*
X790370Y1109670D02*
X797370Y1109670D01*
X797370Y1102670D01*
X790370Y1102670D01*
X790370Y1105520D02*
X797370Y1105520D01*
X797370Y1108370D02*
X790370Y1108370D01*
D12*
X912740Y1201420D03*
X895740Y1201420D03*
X950840Y1201420D03*
X933840Y1201420D03*
X895740Y1112520D03*
X912740Y1112520D03*
X857640Y1201420D03*
X874640Y1201420D03*
D14*
X919240Y1173320D03*
X919240Y1163320D03*
X919240Y1153320D03*
X889240Y1153320D03*
X889240Y1163320D03*
X889240Y1173320D03*
D10*
X1050370Y1191320D03*
X1050370Y1135320D03*
D11*
X1087120Y1178320D03*
X1087120Y1168320D03*
X1087120Y1158320D03*
X1087120Y1148320D03*
D10*
X1276270Y1135320D03*
X1276270Y1191320D03*
D11*
X1239520Y1148320D03*
X1239520Y1158320D03*
X1239520Y1168320D03*
X1239520Y1178320D03*
D12*
X1053220Y1118870D03*
X1070220Y1118870D03*
D13*
X1066990Y1109670D02*
X1066990Y1102670D01*
X1066990Y1109670D02*
X1073990Y1109670D01*
X1073990Y1102670D01*
X1066990Y1102670D01*
X1066990Y1105520D02*
X1073990Y1105520D01*
X1073990Y1108370D02*
X1066990Y1108370D01*
X1049450Y1109670D02*
X1049450Y1102670D01*
X1049450Y1109670D02*
X1056450Y1109670D01*
X1056450Y1102670D01*
X1049450Y1102670D01*
X1049450Y1105520D02*
X1056450Y1105520D01*
X1056450Y1108370D02*
X1049450Y1108370D01*
D12*
X1171820Y1201420D03*
X1154820Y1201420D03*
X1209920Y1201420D03*
X1192920Y1201420D03*
X1154820Y1112520D03*
X1171820Y1112520D03*
X1116720Y1201420D03*
X1133720Y1201420D03*
D14*
X1178320Y1173320D03*
X1178320Y1163320D03*
X1178320Y1153320D03*
X1148320Y1153320D03*
X1148320Y1163320D03*
X1148320Y1173320D03*
M02*
