G04 EAGLE Gerber RS-274X export*
G75*
%MOMM*%
%FSLAX34Y34*%
%LPD*%
%INSoldermask Top*%
%IPPOS*%
%AMOC8*
5,1,8,0,0,1.08239X$1,22.5*%
G01*
%ADD10C,3.505200*%
%ADD11C,1.203200*%
%ADD12R,2.203200X1.403200*%
%ADD13R,1.553200X0.803200*%
%ADD14C,2.082800*%
%ADD15R,1.303200X1.203200*%
%ADD16C,0.505344*%
%ADD17R,1.003200X0.703200*%
%ADD18C,1.270000*%
%ADD19C,1.703200*%


D10*
X25400Y228600D03*
X228600Y228600D03*
D11*
X245110Y8890D03*
X7620Y246380D03*
D12*
X14050Y155000D03*
X14050Y99000D03*
D13*
X50800Y142000D03*
X50800Y132000D03*
X50800Y122000D03*
X50800Y112000D03*
D14*
X88900Y12700D03*
X114300Y12700D03*
X139700Y12700D03*
X165100Y12700D03*
D12*
X239950Y99000D03*
X239950Y155000D03*
D13*
X203200Y112000D03*
X203200Y122000D03*
X203200Y132000D03*
X203200Y142000D03*
D15*
X16900Y82550D03*
X33900Y82550D03*
D16*
X30680Y73340D02*
X30680Y66360D01*
X30680Y73340D02*
X37660Y73340D01*
X37660Y66360D01*
X30680Y66360D01*
X30680Y71160D02*
X37660Y71160D01*
X13140Y73340D02*
X13140Y66360D01*
X13140Y73340D02*
X20120Y73340D01*
X20120Y66360D01*
X13140Y66360D01*
X13140Y71160D02*
X20120Y71160D01*
D15*
X97400Y165100D03*
X80400Y165100D03*
X173600Y165100D03*
X156600Y165100D03*
X118500Y76200D03*
X135500Y76200D03*
D10*
X25400Y25400D03*
X228600Y25400D03*
D17*
X137000Y137000D03*
X137000Y127000D03*
X137000Y117000D03*
X117000Y117000D03*
X117000Y127000D03*
X117000Y137000D03*
D10*
X284480Y228600D03*
X487680Y228600D03*
D11*
X504190Y8890D03*
X266700Y246380D03*
D12*
X273130Y155000D03*
X273130Y99000D03*
D13*
X309880Y142000D03*
X309880Y132000D03*
X309880Y122000D03*
X309880Y112000D03*
D14*
X347980Y12700D03*
X373380Y12700D03*
X398780Y12700D03*
X424180Y12700D03*
D12*
X499030Y99000D03*
X499030Y155000D03*
D13*
X462280Y112000D03*
X462280Y122000D03*
X462280Y132000D03*
X462280Y142000D03*
D15*
X275980Y82550D03*
X292980Y82550D03*
D16*
X289760Y73340D02*
X289760Y66360D01*
X289760Y73340D02*
X296740Y73340D01*
X296740Y66360D01*
X289760Y66360D01*
X289760Y71160D02*
X296740Y71160D01*
X272220Y73340D02*
X272220Y66360D01*
X272220Y73340D02*
X279200Y73340D01*
X279200Y66360D01*
X272220Y66360D01*
X272220Y71160D02*
X279200Y71160D01*
D15*
X356480Y165100D03*
X339480Y165100D03*
X432680Y165100D03*
X415680Y165100D03*
X377580Y76200D03*
X394580Y76200D03*
D10*
X284480Y25400D03*
X487680Y25400D03*
D17*
X396080Y137000D03*
X396080Y127000D03*
X396080Y117000D03*
X376080Y117000D03*
X376080Y127000D03*
X376080Y137000D03*
D10*
X543560Y228600D03*
X746760Y228600D03*
D11*
X763270Y8890D03*
X525780Y246380D03*
D12*
X532210Y155000D03*
X532210Y99000D03*
D13*
X568960Y142000D03*
X568960Y132000D03*
X568960Y122000D03*
X568960Y112000D03*
D14*
X607060Y12700D03*
X632460Y12700D03*
X657860Y12700D03*
X683260Y12700D03*
D12*
X758110Y99000D03*
X758110Y155000D03*
D13*
X721360Y112000D03*
X721360Y122000D03*
X721360Y132000D03*
X721360Y142000D03*
D15*
X535060Y82550D03*
X552060Y82550D03*
D16*
X548840Y73340D02*
X548840Y66360D01*
X548840Y73340D02*
X555820Y73340D01*
X555820Y66360D01*
X548840Y66360D01*
X548840Y71160D02*
X555820Y71160D01*
X531300Y73340D02*
X531300Y66360D01*
X531300Y73340D02*
X538280Y73340D01*
X538280Y66360D01*
X531300Y66360D01*
X531300Y71160D02*
X538280Y71160D01*
D15*
X615560Y165100D03*
X598560Y165100D03*
X691760Y165100D03*
X674760Y165100D03*
X636660Y76200D03*
X653660Y76200D03*
D10*
X543560Y25400D03*
X746760Y25400D03*
D17*
X655160Y137000D03*
X655160Y127000D03*
X655160Y117000D03*
X635160Y117000D03*
X635160Y127000D03*
X635160Y137000D03*
D10*
X802640Y228600D03*
X1005840Y228600D03*
D11*
X1022350Y8890D03*
X784860Y246380D03*
D12*
X791290Y155000D03*
X791290Y99000D03*
D13*
X828040Y142000D03*
X828040Y132000D03*
X828040Y122000D03*
X828040Y112000D03*
D14*
X866140Y12700D03*
X891540Y12700D03*
X916940Y12700D03*
X942340Y12700D03*
D12*
X1017190Y99000D03*
X1017190Y155000D03*
D13*
X980440Y112000D03*
X980440Y122000D03*
X980440Y132000D03*
X980440Y142000D03*
D15*
X794140Y82550D03*
X811140Y82550D03*
D16*
X807920Y73340D02*
X807920Y66360D01*
X807920Y73340D02*
X814900Y73340D01*
X814900Y66360D01*
X807920Y66360D01*
X807920Y71160D02*
X814900Y71160D01*
X790380Y73340D02*
X790380Y66360D01*
X790380Y73340D02*
X797360Y73340D01*
X797360Y66360D01*
X790380Y66360D01*
X790380Y71160D02*
X797360Y71160D01*
D15*
X874640Y165100D03*
X857640Y165100D03*
X950840Y165100D03*
X933840Y165100D03*
X895740Y76200D03*
X912740Y76200D03*
D10*
X802640Y25400D03*
X1005840Y25400D03*
D17*
X914240Y137000D03*
X914240Y127000D03*
X914240Y117000D03*
X894240Y117000D03*
X894240Y127000D03*
X894240Y137000D03*
D10*
X1061720Y228600D03*
X1264920Y228600D03*
D11*
X1281430Y8890D03*
X1043940Y246380D03*
D12*
X1050370Y155000D03*
X1050370Y99000D03*
D13*
X1087120Y142000D03*
X1087120Y132000D03*
X1087120Y122000D03*
X1087120Y112000D03*
D14*
X1125220Y12700D03*
X1150620Y12700D03*
X1176020Y12700D03*
X1201420Y12700D03*
D12*
X1276270Y99000D03*
X1276270Y155000D03*
D13*
X1239520Y112000D03*
X1239520Y122000D03*
X1239520Y132000D03*
X1239520Y142000D03*
D15*
X1053220Y82550D03*
X1070220Y82550D03*
D16*
X1067000Y73340D02*
X1067000Y66360D01*
X1067000Y73340D02*
X1073980Y73340D01*
X1073980Y66360D01*
X1067000Y66360D01*
X1067000Y71160D02*
X1073980Y71160D01*
X1049460Y73340D02*
X1049460Y66360D01*
X1049460Y73340D02*
X1056440Y73340D01*
X1056440Y66360D01*
X1049460Y66360D01*
X1049460Y71160D02*
X1056440Y71160D01*
D15*
X1133720Y165100D03*
X1116720Y165100D03*
X1209920Y165100D03*
X1192920Y165100D03*
X1154820Y76200D03*
X1171820Y76200D03*
D10*
X1061720Y25400D03*
X1264920Y25400D03*
D17*
X1173320Y137000D03*
X1173320Y127000D03*
X1173320Y117000D03*
X1153320Y117000D03*
X1153320Y127000D03*
X1153320Y137000D03*
D10*
X25400Y487680D03*
X228600Y487680D03*
D11*
X245110Y267970D03*
X7620Y505460D03*
D12*
X14050Y414080D03*
X14050Y358080D03*
D13*
X50800Y401080D03*
X50800Y391080D03*
X50800Y381080D03*
X50800Y371080D03*
D14*
X88900Y271780D03*
X114300Y271780D03*
X139700Y271780D03*
X165100Y271780D03*
D12*
X239950Y358080D03*
X239950Y414080D03*
D13*
X203200Y371080D03*
X203200Y381080D03*
X203200Y391080D03*
X203200Y401080D03*
D15*
X16900Y341630D03*
X33900Y341630D03*
D16*
X30680Y332420D02*
X30680Y325440D01*
X30680Y332420D02*
X37660Y332420D01*
X37660Y325440D01*
X30680Y325440D01*
X30680Y330240D02*
X37660Y330240D01*
X13140Y332420D02*
X13140Y325440D01*
X13140Y332420D02*
X20120Y332420D01*
X20120Y325440D01*
X13140Y325440D01*
X13140Y330240D02*
X20120Y330240D01*
D15*
X97400Y424180D03*
X80400Y424180D03*
X173600Y424180D03*
X156600Y424180D03*
X118500Y335280D03*
X135500Y335280D03*
D10*
X25400Y284480D03*
X228600Y284480D03*
D17*
X137000Y396080D03*
X137000Y386080D03*
X137000Y376080D03*
X117000Y376080D03*
X117000Y386080D03*
X117000Y396080D03*
D10*
X284480Y487680D03*
X487680Y487680D03*
D11*
X504190Y267970D03*
X266700Y505460D03*
D12*
X273130Y414080D03*
X273130Y358080D03*
D13*
X309880Y401080D03*
X309880Y391080D03*
X309880Y381080D03*
X309880Y371080D03*
D14*
X347980Y271780D03*
X373380Y271780D03*
X398780Y271780D03*
X424180Y271780D03*
D12*
X499030Y358080D03*
X499030Y414080D03*
D13*
X462280Y371080D03*
X462280Y381080D03*
X462280Y391080D03*
X462280Y401080D03*
D15*
X275980Y341630D03*
X292980Y341630D03*
D16*
X289760Y332420D02*
X289760Y325440D01*
X289760Y332420D02*
X296740Y332420D01*
X296740Y325440D01*
X289760Y325440D01*
X289760Y330240D02*
X296740Y330240D01*
X272220Y332420D02*
X272220Y325440D01*
X272220Y332420D02*
X279200Y332420D01*
X279200Y325440D01*
X272220Y325440D01*
X272220Y330240D02*
X279200Y330240D01*
D15*
X356480Y424180D03*
X339480Y424180D03*
X432680Y424180D03*
X415680Y424180D03*
X377580Y335280D03*
X394580Y335280D03*
D10*
X284480Y284480D03*
X487680Y284480D03*
D17*
X396080Y396080D03*
X396080Y386080D03*
X396080Y376080D03*
X376080Y376080D03*
X376080Y386080D03*
X376080Y396080D03*
D10*
X543560Y487680D03*
X746760Y487680D03*
D11*
X763270Y267970D03*
X525780Y505460D03*
D12*
X532210Y414080D03*
X532210Y358080D03*
D13*
X568960Y401080D03*
X568960Y391080D03*
X568960Y381080D03*
X568960Y371080D03*
D14*
X607060Y271780D03*
X632460Y271780D03*
X657860Y271780D03*
X683260Y271780D03*
D12*
X758110Y358080D03*
X758110Y414080D03*
D13*
X721360Y371080D03*
X721360Y381080D03*
X721360Y391080D03*
X721360Y401080D03*
D15*
X535060Y341630D03*
X552060Y341630D03*
D16*
X548840Y332420D02*
X548840Y325440D01*
X548840Y332420D02*
X555820Y332420D01*
X555820Y325440D01*
X548840Y325440D01*
X548840Y330240D02*
X555820Y330240D01*
X531300Y332420D02*
X531300Y325440D01*
X531300Y332420D02*
X538280Y332420D01*
X538280Y325440D01*
X531300Y325440D01*
X531300Y330240D02*
X538280Y330240D01*
D15*
X615560Y424180D03*
X598560Y424180D03*
X691760Y424180D03*
X674760Y424180D03*
X636660Y335280D03*
X653660Y335280D03*
D10*
X543560Y284480D03*
X746760Y284480D03*
D17*
X655160Y396080D03*
X655160Y386080D03*
X655160Y376080D03*
X635160Y376080D03*
X635160Y386080D03*
X635160Y396080D03*
D10*
X802640Y487680D03*
X1005840Y487680D03*
D11*
X1022350Y267970D03*
X784860Y505460D03*
D12*
X791290Y414080D03*
X791290Y358080D03*
D13*
X828040Y401080D03*
X828040Y391080D03*
X828040Y381080D03*
X828040Y371080D03*
D14*
X866140Y271780D03*
X891540Y271780D03*
X916940Y271780D03*
X942340Y271780D03*
D12*
X1017190Y358080D03*
X1017190Y414080D03*
D13*
X980440Y371080D03*
X980440Y381080D03*
X980440Y391080D03*
X980440Y401080D03*
D15*
X794140Y341630D03*
X811140Y341630D03*
D16*
X807920Y332420D02*
X807920Y325440D01*
X807920Y332420D02*
X814900Y332420D01*
X814900Y325440D01*
X807920Y325440D01*
X807920Y330240D02*
X814900Y330240D01*
X790380Y332420D02*
X790380Y325440D01*
X790380Y332420D02*
X797360Y332420D01*
X797360Y325440D01*
X790380Y325440D01*
X790380Y330240D02*
X797360Y330240D01*
D15*
X874640Y424180D03*
X857640Y424180D03*
X950840Y424180D03*
X933840Y424180D03*
X895740Y335280D03*
X912740Y335280D03*
D10*
X802640Y284480D03*
X1005840Y284480D03*
D17*
X914240Y396080D03*
X914240Y386080D03*
X914240Y376080D03*
X894240Y376080D03*
X894240Y386080D03*
X894240Y396080D03*
D10*
X1061720Y487680D03*
X1264920Y487680D03*
D11*
X1281430Y267970D03*
X1043940Y505460D03*
D12*
X1050370Y414080D03*
X1050370Y358080D03*
D13*
X1087120Y401080D03*
X1087120Y391080D03*
X1087120Y381080D03*
X1087120Y371080D03*
D14*
X1125220Y271780D03*
X1150620Y271780D03*
X1176020Y271780D03*
X1201420Y271780D03*
D12*
X1276270Y358080D03*
X1276270Y414080D03*
D13*
X1239520Y371080D03*
X1239520Y381080D03*
X1239520Y391080D03*
X1239520Y401080D03*
D15*
X1053220Y341630D03*
X1070220Y341630D03*
D16*
X1067000Y332420D02*
X1067000Y325440D01*
X1067000Y332420D02*
X1073980Y332420D01*
X1073980Y325440D01*
X1067000Y325440D01*
X1067000Y330240D02*
X1073980Y330240D01*
X1049460Y332420D02*
X1049460Y325440D01*
X1049460Y332420D02*
X1056440Y332420D01*
X1056440Y325440D01*
X1049460Y325440D01*
X1049460Y330240D02*
X1056440Y330240D01*
D15*
X1133720Y424180D03*
X1116720Y424180D03*
X1209920Y424180D03*
X1192920Y424180D03*
X1154820Y335280D03*
X1171820Y335280D03*
D10*
X1061720Y284480D03*
X1264920Y284480D03*
D17*
X1173320Y396080D03*
X1173320Y386080D03*
X1173320Y376080D03*
X1153320Y376080D03*
X1153320Y386080D03*
X1153320Y396080D03*
D10*
X25400Y746760D03*
X228600Y746760D03*
D11*
X245110Y527050D03*
X7620Y764540D03*
D12*
X14050Y673160D03*
X14050Y617160D03*
D13*
X50800Y660160D03*
X50800Y650160D03*
X50800Y640160D03*
X50800Y630160D03*
D14*
X88900Y530860D03*
X114300Y530860D03*
X139700Y530860D03*
X165100Y530860D03*
D12*
X239950Y617160D03*
X239950Y673160D03*
D13*
X203200Y630160D03*
X203200Y640160D03*
X203200Y650160D03*
X203200Y660160D03*
D15*
X16900Y600710D03*
X33900Y600710D03*
D16*
X30680Y591500D02*
X30680Y584520D01*
X30680Y591500D02*
X37660Y591500D01*
X37660Y584520D01*
X30680Y584520D01*
X30680Y589320D02*
X37660Y589320D01*
X13140Y591500D02*
X13140Y584520D01*
X13140Y591500D02*
X20120Y591500D01*
X20120Y584520D01*
X13140Y584520D01*
X13140Y589320D02*
X20120Y589320D01*
D15*
X97400Y683260D03*
X80400Y683260D03*
X173600Y683260D03*
X156600Y683260D03*
X118500Y594360D03*
X135500Y594360D03*
D10*
X25400Y543560D03*
X228600Y543560D03*
D17*
X137000Y655160D03*
X137000Y645160D03*
X137000Y635160D03*
X117000Y635160D03*
X117000Y645160D03*
X117000Y655160D03*
D10*
X284480Y746760D03*
X487680Y746760D03*
D11*
X504190Y527050D03*
X266700Y764540D03*
D12*
X273130Y673160D03*
X273130Y617160D03*
D13*
X309880Y660160D03*
X309880Y650160D03*
X309880Y640160D03*
X309880Y630160D03*
D14*
X347980Y530860D03*
X373380Y530860D03*
X398780Y530860D03*
X424180Y530860D03*
D12*
X499030Y617160D03*
X499030Y673160D03*
D13*
X462280Y630160D03*
X462280Y640160D03*
X462280Y650160D03*
X462280Y660160D03*
D15*
X275980Y600710D03*
X292980Y600710D03*
D16*
X289760Y591500D02*
X289760Y584520D01*
X289760Y591500D02*
X296740Y591500D01*
X296740Y584520D01*
X289760Y584520D01*
X289760Y589320D02*
X296740Y589320D01*
X272220Y591500D02*
X272220Y584520D01*
X272220Y591500D02*
X279200Y591500D01*
X279200Y584520D01*
X272220Y584520D01*
X272220Y589320D02*
X279200Y589320D01*
D15*
X356480Y683260D03*
X339480Y683260D03*
X432680Y683260D03*
X415680Y683260D03*
X377580Y594360D03*
X394580Y594360D03*
D10*
X284480Y543560D03*
X487680Y543560D03*
D17*
X396080Y655160D03*
X396080Y645160D03*
X396080Y635160D03*
X376080Y635160D03*
X376080Y645160D03*
X376080Y655160D03*
D10*
X543560Y746760D03*
X746760Y746760D03*
D11*
X763270Y527050D03*
X525780Y764540D03*
D12*
X532210Y673160D03*
X532210Y617160D03*
D13*
X568960Y660160D03*
X568960Y650160D03*
X568960Y640160D03*
X568960Y630160D03*
D14*
X607060Y530860D03*
X632460Y530860D03*
X657860Y530860D03*
X683260Y530860D03*
D12*
X758110Y617160D03*
X758110Y673160D03*
D13*
X721360Y630160D03*
X721360Y640160D03*
X721360Y650160D03*
X721360Y660160D03*
D15*
X535060Y600710D03*
X552060Y600710D03*
D16*
X548840Y591500D02*
X548840Y584520D01*
X548840Y591500D02*
X555820Y591500D01*
X555820Y584520D01*
X548840Y584520D01*
X548840Y589320D02*
X555820Y589320D01*
X531300Y591500D02*
X531300Y584520D01*
X531300Y591500D02*
X538280Y591500D01*
X538280Y584520D01*
X531300Y584520D01*
X531300Y589320D02*
X538280Y589320D01*
D15*
X615560Y683260D03*
X598560Y683260D03*
X691760Y683260D03*
X674760Y683260D03*
X636660Y594360D03*
X653660Y594360D03*
D10*
X543560Y543560D03*
X746760Y543560D03*
D17*
X655160Y655160D03*
X655160Y645160D03*
X655160Y635160D03*
X635160Y635160D03*
X635160Y645160D03*
X635160Y655160D03*
D10*
X802640Y746760D03*
X1005840Y746760D03*
D11*
X1022350Y527050D03*
X784860Y764540D03*
D12*
X791290Y673160D03*
X791290Y617160D03*
D13*
X828040Y660160D03*
X828040Y650160D03*
X828040Y640160D03*
X828040Y630160D03*
D14*
X866140Y530860D03*
X891540Y530860D03*
X916940Y530860D03*
X942340Y530860D03*
D12*
X1017190Y617160D03*
X1017190Y673160D03*
D13*
X980440Y630160D03*
X980440Y640160D03*
X980440Y650160D03*
X980440Y660160D03*
D15*
X794140Y600710D03*
X811140Y600710D03*
D16*
X807920Y591500D02*
X807920Y584520D01*
X807920Y591500D02*
X814900Y591500D01*
X814900Y584520D01*
X807920Y584520D01*
X807920Y589320D02*
X814900Y589320D01*
X790380Y591500D02*
X790380Y584520D01*
X790380Y591500D02*
X797360Y591500D01*
X797360Y584520D01*
X790380Y584520D01*
X790380Y589320D02*
X797360Y589320D01*
D15*
X874640Y683260D03*
X857640Y683260D03*
X950840Y683260D03*
X933840Y683260D03*
X895740Y594360D03*
X912740Y594360D03*
D10*
X802640Y543560D03*
X1005840Y543560D03*
D17*
X914240Y655160D03*
X914240Y645160D03*
X914240Y635160D03*
X894240Y635160D03*
X894240Y645160D03*
X894240Y655160D03*
D10*
X1061720Y746760D03*
X1264920Y746760D03*
D11*
X1281430Y527050D03*
X1043940Y764540D03*
D12*
X1050370Y673160D03*
X1050370Y617160D03*
D13*
X1087120Y660160D03*
X1087120Y650160D03*
X1087120Y640160D03*
X1087120Y630160D03*
D14*
X1125220Y530860D03*
X1150620Y530860D03*
X1176020Y530860D03*
X1201420Y530860D03*
D12*
X1276270Y617160D03*
X1276270Y673160D03*
D13*
X1239520Y630160D03*
X1239520Y640160D03*
X1239520Y650160D03*
X1239520Y660160D03*
D15*
X1053220Y600710D03*
X1070220Y600710D03*
D16*
X1067000Y591500D02*
X1067000Y584520D01*
X1067000Y591500D02*
X1073980Y591500D01*
X1073980Y584520D01*
X1067000Y584520D01*
X1067000Y589320D02*
X1073980Y589320D01*
X1049460Y591500D02*
X1049460Y584520D01*
X1049460Y591500D02*
X1056440Y591500D01*
X1056440Y584520D01*
X1049460Y584520D01*
X1049460Y589320D02*
X1056440Y589320D01*
D15*
X1133720Y683260D03*
X1116720Y683260D03*
X1209920Y683260D03*
X1192920Y683260D03*
X1154820Y594360D03*
X1171820Y594360D03*
D10*
X1061720Y543560D03*
X1264920Y543560D03*
D17*
X1173320Y655160D03*
X1173320Y645160D03*
X1173320Y635160D03*
X1153320Y635160D03*
X1153320Y645160D03*
X1153320Y655160D03*
D10*
X25400Y1005840D03*
X228600Y1005840D03*
D11*
X245110Y786130D03*
X7620Y1023620D03*
D12*
X14050Y932240D03*
X14050Y876240D03*
D13*
X50800Y919240D03*
X50800Y909240D03*
X50800Y899240D03*
X50800Y889240D03*
D14*
X88900Y789940D03*
X114300Y789940D03*
X139700Y789940D03*
X165100Y789940D03*
D12*
X239950Y876240D03*
X239950Y932240D03*
D13*
X203200Y889240D03*
X203200Y899240D03*
X203200Y909240D03*
X203200Y919240D03*
D15*
X16900Y859790D03*
X33900Y859790D03*
D16*
X30680Y850580D02*
X30680Y843600D01*
X30680Y850580D02*
X37660Y850580D01*
X37660Y843600D01*
X30680Y843600D01*
X30680Y848400D02*
X37660Y848400D01*
X13140Y850580D02*
X13140Y843600D01*
X13140Y850580D02*
X20120Y850580D01*
X20120Y843600D01*
X13140Y843600D01*
X13140Y848400D02*
X20120Y848400D01*
D15*
X97400Y942340D03*
X80400Y942340D03*
X173600Y942340D03*
X156600Y942340D03*
X118500Y853440D03*
X135500Y853440D03*
D10*
X25400Y802640D03*
X228600Y802640D03*
D17*
X137000Y914240D03*
X137000Y904240D03*
X137000Y894240D03*
X117000Y894240D03*
X117000Y904240D03*
X117000Y914240D03*
D10*
X284480Y1005840D03*
X487680Y1005840D03*
D11*
X504190Y786130D03*
X266700Y1023620D03*
D12*
X273130Y932240D03*
X273130Y876240D03*
D13*
X309880Y919240D03*
X309880Y909240D03*
X309880Y899240D03*
X309880Y889240D03*
D14*
X347980Y789940D03*
X373380Y789940D03*
X398780Y789940D03*
X424180Y789940D03*
D12*
X499030Y876240D03*
X499030Y932240D03*
D13*
X462280Y889240D03*
X462280Y899240D03*
X462280Y909240D03*
X462280Y919240D03*
D15*
X275980Y859790D03*
X292980Y859790D03*
D16*
X289760Y850580D02*
X289760Y843600D01*
X289760Y850580D02*
X296740Y850580D01*
X296740Y843600D01*
X289760Y843600D01*
X289760Y848400D02*
X296740Y848400D01*
X272220Y850580D02*
X272220Y843600D01*
X272220Y850580D02*
X279200Y850580D01*
X279200Y843600D01*
X272220Y843600D01*
X272220Y848400D02*
X279200Y848400D01*
D15*
X356480Y942340D03*
X339480Y942340D03*
X432680Y942340D03*
X415680Y942340D03*
X377580Y853440D03*
X394580Y853440D03*
D10*
X284480Y802640D03*
X487680Y802640D03*
D17*
X396080Y914240D03*
X396080Y904240D03*
X396080Y894240D03*
X376080Y894240D03*
X376080Y904240D03*
X376080Y914240D03*
D10*
X543560Y1005840D03*
X746760Y1005840D03*
D11*
X763270Y786130D03*
X525780Y1023620D03*
D12*
X532210Y932240D03*
X532210Y876240D03*
D13*
X568960Y919240D03*
X568960Y909240D03*
X568960Y899240D03*
X568960Y889240D03*
D14*
X607060Y789940D03*
X632460Y789940D03*
X657860Y789940D03*
X683260Y789940D03*
D12*
X758110Y876240D03*
X758110Y932240D03*
D13*
X721360Y889240D03*
X721360Y899240D03*
X721360Y909240D03*
X721360Y919240D03*
D15*
X535060Y859790D03*
X552060Y859790D03*
D16*
X548840Y850580D02*
X548840Y843600D01*
X548840Y850580D02*
X555820Y850580D01*
X555820Y843600D01*
X548840Y843600D01*
X548840Y848400D02*
X555820Y848400D01*
X531300Y850580D02*
X531300Y843600D01*
X531300Y850580D02*
X538280Y850580D01*
X538280Y843600D01*
X531300Y843600D01*
X531300Y848400D02*
X538280Y848400D01*
D15*
X615560Y942340D03*
X598560Y942340D03*
X691760Y942340D03*
X674760Y942340D03*
X636660Y853440D03*
X653660Y853440D03*
D10*
X543560Y802640D03*
X746760Y802640D03*
D17*
X655160Y914240D03*
X655160Y904240D03*
X655160Y894240D03*
X635160Y894240D03*
X635160Y904240D03*
X635160Y914240D03*
D10*
X802640Y1005840D03*
X1005840Y1005840D03*
D11*
X1022350Y786130D03*
X784860Y1023620D03*
D12*
X791290Y932240D03*
X791290Y876240D03*
D13*
X828040Y919240D03*
X828040Y909240D03*
X828040Y899240D03*
X828040Y889240D03*
D14*
X866140Y789940D03*
X891540Y789940D03*
X916940Y789940D03*
X942340Y789940D03*
D12*
X1017190Y876240D03*
X1017190Y932240D03*
D13*
X980440Y889240D03*
X980440Y899240D03*
X980440Y909240D03*
X980440Y919240D03*
D15*
X794140Y859790D03*
X811140Y859790D03*
D16*
X807920Y850580D02*
X807920Y843600D01*
X807920Y850580D02*
X814900Y850580D01*
X814900Y843600D01*
X807920Y843600D01*
X807920Y848400D02*
X814900Y848400D01*
X790380Y850580D02*
X790380Y843600D01*
X790380Y850580D02*
X797360Y850580D01*
X797360Y843600D01*
X790380Y843600D01*
X790380Y848400D02*
X797360Y848400D01*
D15*
X874640Y942340D03*
X857640Y942340D03*
X950840Y942340D03*
X933840Y942340D03*
X895740Y853440D03*
X912740Y853440D03*
D10*
X802640Y802640D03*
X1005840Y802640D03*
D17*
X914240Y914240D03*
X914240Y904240D03*
X914240Y894240D03*
X894240Y894240D03*
X894240Y904240D03*
X894240Y914240D03*
D10*
X1061720Y1005840D03*
X1264920Y1005840D03*
D11*
X1281430Y786130D03*
X1043940Y1023620D03*
D12*
X1050370Y932240D03*
X1050370Y876240D03*
D13*
X1087120Y919240D03*
X1087120Y909240D03*
X1087120Y899240D03*
X1087120Y889240D03*
D14*
X1125220Y789940D03*
X1150620Y789940D03*
X1176020Y789940D03*
X1201420Y789940D03*
D12*
X1276270Y876240D03*
X1276270Y932240D03*
D13*
X1239520Y889240D03*
X1239520Y899240D03*
X1239520Y909240D03*
X1239520Y919240D03*
D15*
X1053220Y859790D03*
X1070220Y859790D03*
D16*
X1067000Y850580D02*
X1067000Y843600D01*
X1067000Y850580D02*
X1073980Y850580D01*
X1073980Y843600D01*
X1067000Y843600D01*
X1067000Y848400D02*
X1073980Y848400D01*
X1049460Y850580D02*
X1049460Y843600D01*
X1049460Y850580D02*
X1056440Y850580D01*
X1056440Y843600D01*
X1049460Y843600D01*
X1049460Y848400D02*
X1056440Y848400D01*
D15*
X1133720Y942340D03*
X1116720Y942340D03*
X1209920Y942340D03*
X1192920Y942340D03*
X1154820Y853440D03*
X1171820Y853440D03*
D10*
X1061720Y802640D03*
X1264920Y802640D03*
D17*
X1173320Y914240D03*
X1173320Y904240D03*
X1173320Y894240D03*
X1153320Y894240D03*
X1153320Y904240D03*
X1153320Y914240D03*
D10*
X25400Y1264920D03*
X228600Y1264920D03*
D11*
X245110Y1045210D03*
X7620Y1282700D03*
D12*
X14050Y1191320D03*
X14050Y1135320D03*
D13*
X50800Y1178320D03*
X50800Y1168320D03*
X50800Y1158320D03*
X50800Y1148320D03*
D14*
X88900Y1049020D03*
X114300Y1049020D03*
X139700Y1049020D03*
X165100Y1049020D03*
D12*
X239950Y1135320D03*
X239950Y1191320D03*
D13*
X203200Y1148320D03*
X203200Y1158320D03*
X203200Y1168320D03*
X203200Y1178320D03*
D15*
X16900Y1118870D03*
X33900Y1118870D03*
D16*
X30680Y1109660D02*
X30680Y1102680D01*
X30680Y1109660D02*
X37660Y1109660D01*
X37660Y1102680D01*
X30680Y1102680D01*
X30680Y1107480D02*
X37660Y1107480D01*
X13140Y1109660D02*
X13140Y1102680D01*
X13140Y1109660D02*
X20120Y1109660D01*
X20120Y1102680D01*
X13140Y1102680D01*
X13140Y1107480D02*
X20120Y1107480D01*
D15*
X97400Y1201420D03*
X80400Y1201420D03*
X173600Y1201420D03*
X156600Y1201420D03*
X118500Y1112520D03*
X135500Y1112520D03*
D10*
X25400Y1061720D03*
X228600Y1061720D03*
D17*
X137000Y1173320D03*
X137000Y1163320D03*
X137000Y1153320D03*
X117000Y1153320D03*
X117000Y1163320D03*
X117000Y1173320D03*
D10*
X284480Y1264920D03*
X487680Y1264920D03*
D11*
X504190Y1045210D03*
X266700Y1282700D03*
D12*
X273130Y1191320D03*
X273130Y1135320D03*
D13*
X309880Y1178320D03*
X309880Y1168320D03*
X309880Y1158320D03*
X309880Y1148320D03*
D14*
X347980Y1049020D03*
X373380Y1049020D03*
X398780Y1049020D03*
X424180Y1049020D03*
D12*
X499030Y1135320D03*
X499030Y1191320D03*
D13*
X462280Y1148320D03*
X462280Y1158320D03*
X462280Y1168320D03*
X462280Y1178320D03*
D15*
X275980Y1118870D03*
X292980Y1118870D03*
D16*
X289760Y1109660D02*
X289760Y1102680D01*
X289760Y1109660D02*
X296740Y1109660D01*
X296740Y1102680D01*
X289760Y1102680D01*
X289760Y1107480D02*
X296740Y1107480D01*
X272220Y1109660D02*
X272220Y1102680D01*
X272220Y1109660D02*
X279200Y1109660D01*
X279200Y1102680D01*
X272220Y1102680D01*
X272220Y1107480D02*
X279200Y1107480D01*
D15*
X356480Y1201420D03*
X339480Y1201420D03*
X432680Y1201420D03*
X415680Y1201420D03*
X377580Y1112520D03*
X394580Y1112520D03*
D10*
X284480Y1061720D03*
X487680Y1061720D03*
D17*
X396080Y1173320D03*
X396080Y1163320D03*
X396080Y1153320D03*
X376080Y1153320D03*
X376080Y1163320D03*
X376080Y1173320D03*
D10*
X543560Y1264920D03*
X746760Y1264920D03*
D11*
X763270Y1045210D03*
X525780Y1282700D03*
D12*
X532210Y1191320D03*
X532210Y1135320D03*
D13*
X568960Y1178320D03*
X568960Y1168320D03*
X568960Y1158320D03*
X568960Y1148320D03*
D14*
X607060Y1049020D03*
X632460Y1049020D03*
X657860Y1049020D03*
X683260Y1049020D03*
D12*
X758110Y1135320D03*
X758110Y1191320D03*
D13*
X721360Y1148320D03*
X721360Y1158320D03*
X721360Y1168320D03*
X721360Y1178320D03*
D15*
X535060Y1118870D03*
X552060Y1118870D03*
D16*
X548840Y1109660D02*
X548840Y1102680D01*
X548840Y1109660D02*
X555820Y1109660D01*
X555820Y1102680D01*
X548840Y1102680D01*
X548840Y1107480D02*
X555820Y1107480D01*
X531300Y1109660D02*
X531300Y1102680D01*
X531300Y1109660D02*
X538280Y1109660D01*
X538280Y1102680D01*
X531300Y1102680D01*
X531300Y1107480D02*
X538280Y1107480D01*
D15*
X615560Y1201420D03*
X598560Y1201420D03*
X691760Y1201420D03*
X674760Y1201420D03*
X636660Y1112520D03*
X653660Y1112520D03*
D10*
X543560Y1061720D03*
X746760Y1061720D03*
D17*
X655160Y1173320D03*
X655160Y1163320D03*
X655160Y1153320D03*
X635160Y1153320D03*
X635160Y1163320D03*
X635160Y1173320D03*
D10*
X802640Y1264920D03*
X1005840Y1264920D03*
D11*
X1022350Y1045210D03*
X784860Y1282700D03*
D12*
X791290Y1191320D03*
X791290Y1135320D03*
D13*
X828040Y1178320D03*
X828040Y1168320D03*
X828040Y1158320D03*
X828040Y1148320D03*
D14*
X866140Y1049020D03*
X891540Y1049020D03*
X916940Y1049020D03*
X942340Y1049020D03*
D12*
X1017190Y1135320D03*
X1017190Y1191320D03*
D13*
X980440Y1148320D03*
X980440Y1158320D03*
X980440Y1168320D03*
X980440Y1178320D03*
D15*
X794140Y1118870D03*
X811140Y1118870D03*
D16*
X807920Y1109660D02*
X807920Y1102680D01*
X807920Y1109660D02*
X814900Y1109660D01*
X814900Y1102680D01*
X807920Y1102680D01*
X807920Y1107480D02*
X814900Y1107480D01*
X790380Y1109660D02*
X790380Y1102680D01*
X790380Y1109660D02*
X797360Y1109660D01*
X797360Y1102680D01*
X790380Y1102680D01*
X790380Y1107480D02*
X797360Y1107480D01*
D15*
X874640Y1201420D03*
X857640Y1201420D03*
X950840Y1201420D03*
X933840Y1201420D03*
X895740Y1112520D03*
X912740Y1112520D03*
D10*
X802640Y1061720D03*
X1005840Y1061720D03*
D17*
X914240Y1173320D03*
X914240Y1163320D03*
X914240Y1153320D03*
X894240Y1153320D03*
X894240Y1163320D03*
X894240Y1173320D03*
D10*
X1061720Y1264920D03*
X1264920Y1264920D03*
D11*
X1281430Y1045210D03*
X1043940Y1282700D03*
D12*
X1050370Y1191320D03*
X1050370Y1135320D03*
D13*
X1087120Y1178320D03*
X1087120Y1168320D03*
X1087120Y1158320D03*
X1087120Y1148320D03*
D14*
X1125220Y1049020D03*
X1150620Y1049020D03*
X1176020Y1049020D03*
X1201420Y1049020D03*
D12*
X1276270Y1135320D03*
X1276270Y1191320D03*
D13*
X1239520Y1148320D03*
X1239520Y1158320D03*
X1239520Y1168320D03*
X1239520Y1178320D03*
D15*
X1053220Y1118870D03*
X1070220Y1118870D03*
D16*
X1067000Y1109660D02*
X1067000Y1102680D01*
X1067000Y1109660D02*
X1073980Y1109660D01*
X1073980Y1102680D01*
X1067000Y1102680D01*
X1067000Y1107480D02*
X1073980Y1107480D01*
X1049460Y1109660D02*
X1049460Y1102680D01*
X1049460Y1109660D02*
X1056440Y1109660D01*
X1056440Y1102680D01*
X1049460Y1102680D01*
X1049460Y1107480D02*
X1056440Y1107480D01*
D15*
X1133720Y1201420D03*
X1116720Y1201420D03*
X1209920Y1201420D03*
X1192920Y1201420D03*
X1154820Y1112520D03*
X1171820Y1112520D03*
D10*
X1061720Y1061720D03*
X1264920Y1061720D03*
D17*
X1173320Y1173320D03*
X1173320Y1163320D03*
X1173320Y1153320D03*
X1153320Y1153320D03*
X1153320Y1163320D03*
X1153320Y1173320D03*
D11*
X-26238Y1263650D03*
X1316558Y1263650D03*
D18*
X-35293Y63500D02*
X-35290Y63722D01*
X-35282Y63944D01*
X-35268Y64166D01*
X-35249Y64388D01*
X-35225Y64608D01*
X-35195Y64829D01*
X-35160Y65048D01*
X-35119Y65267D01*
X-35073Y65484D01*
X-35022Y65700D01*
X-34965Y65915D01*
X-34903Y66129D01*
X-34836Y66340D01*
X-34764Y66551D01*
X-34686Y66759D01*
X-34604Y66965D01*
X-34516Y67169D01*
X-34424Y67372D01*
X-34326Y67571D01*
X-34224Y67768D01*
X-34117Y67963D01*
X-34005Y68155D01*
X-33888Y68344D01*
X-33767Y68531D01*
X-33641Y68714D01*
X-33511Y68894D01*
X-33376Y69071D01*
X-33238Y69244D01*
X-33095Y69414D01*
X-32947Y69581D01*
X-32796Y69744D01*
X-32641Y69903D01*
X-32482Y70058D01*
X-32319Y70209D01*
X-32152Y70357D01*
X-31982Y70500D01*
X-31809Y70638D01*
X-31632Y70773D01*
X-31452Y70903D01*
X-31269Y71029D01*
X-31082Y71150D01*
X-30893Y71267D01*
X-30701Y71379D01*
X-30506Y71486D01*
X-30309Y71588D01*
X-30110Y71686D01*
X-29907Y71778D01*
X-29703Y71866D01*
X-29497Y71948D01*
X-29289Y72026D01*
X-29078Y72098D01*
X-28867Y72165D01*
X-28653Y72227D01*
X-28438Y72284D01*
X-28222Y72335D01*
X-28005Y72381D01*
X-27786Y72422D01*
X-27567Y72457D01*
X-27346Y72487D01*
X-27126Y72511D01*
X-26904Y72530D01*
X-26682Y72544D01*
X-26460Y72552D01*
X-26238Y72555D01*
X-26016Y72552D01*
X-25794Y72544D01*
X-25572Y72530D01*
X-25350Y72511D01*
X-25130Y72487D01*
X-24909Y72457D01*
X-24690Y72422D01*
X-24471Y72381D01*
X-24254Y72335D01*
X-24038Y72284D01*
X-23823Y72227D01*
X-23609Y72165D01*
X-23398Y72098D01*
X-23187Y72026D01*
X-22979Y71948D01*
X-22773Y71866D01*
X-22569Y71778D01*
X-22366Y71686D01*
X-22167Y71588D01*
X-21970Y71486D01*
X-21775Y71379D01*
X-21583Y71267D01*
X-21394Y71150D01*
X-21207Y71029D01*
X-21024Y70903D01*
X-20844Y70773D01*
X-20667Y70638D01*
X-20494Y70500D01*
X-20324Y70357D01*
X-20157Y70209D01*
X-19994Y70058D01*
X-19835Y69903D01*
X-19680Y69744D01*
X-19529Y69581D01*
X-19381Y69414D01*
X-19238Y69244D01*
X-19100Y69071D01*
X-18965Y68894D01*
X-18835Y68714D01*
X-18709Y68531D01*
X-18588Y68344D01*
X-18471Y68155D01*
X-18359Y67963D01*
X-18252Y67768D01*
X-18150Y67571D01*
X-18052Y67372D01*
X-17960Y67169D01*
X-17872Y66965D01*
X-17790Y66759D01*
X-17712Y66551D01*
X-17640Y66340D01*
X-17573Y66129D01*
X-17511Y65915D01*
X-17454Y65700D01*
X-17403Y65484D01*
X-17357Y65267D01*
X-17316Y65048D01*
X-17281Y64829D01*
X-17251Y64608D01*
X-17227Y64388D01*
X-17208Y64166D01*
X-17194Y63944D01*
X-17186Y63722D01*
X-17183Y63500D01*
X-17186Y63278D01*
X-17194Y63056D01*
X-17208Y62834D01*
X-17227Y62612D01*
X-17251Y62392D01*
X-17281Y62171D01*
X-17316Y61952D01*
X-17357Y61733D01*
X-17403Y61516D01*
X-17454Y61300D01*
X-17511Y61085D01*
X-17573Y60871D01*
X-17640Y60660D01*
X-17712Y60449D01*
X-17790Y60241D01*
X-17872Y60035D01*
X-17960Y59831D01*
X-18052Y59628D01*
X-18150Y59429D01*
X-18252Y59232D01*
X-18359Y59037D01*
X-18471Y58845D01*
X-18588Y58656D01*
X-18709Y58469D01*
X-18835Y58286D01*
X-18965Y58106D01*
X-19100Y57929D01*
X-19238Y57756D01*
X-19381Y57586D01*
X-19529Y57419D01*
X-19680Y57256D01*
X-19835Y57097D01*
X-19994Y56942D01*
X-20157Y56791D01*
X-20324Y56643D01*
X-20494Y56500D01*
X-20667Y56362D01*
X-20844Y56227D01*
X-21024Y56097D01*
X-21207Y55971D01*
X-21394Y55850D01*
X-21583Y55733D01*
X-21775Y55621D01*
X-21970Y55514D01*
X-22167Y55412D01*
X-22366Y55314D01*
X-22569Y55222D01*
X-22773Y55134D01*
X-22979Y55052D01*
X-23187Y54974D01*
X-23398Y54902D01*
X-23609Y54835D01*
X-23823Y54773D01*
X-24038Y54716D01*
X-24254Y54665D01*
X-24471Y54619D01*
X-24690Y54578D01*
X-24909Y54543D01*
X-25130Y54513D01*
X-25350Y54489D01*
X-25572Y54470D01*
X-25794Y54456D01*
X-26016Y54448D01*
X-26238Y54445D01*
X-26460Y54448D01*
X-26682Y54456D01*
X-26904Y54470D01*
X-27126Y54489D01*
X-27346Y54513D01*
X-27567Y54543D01*
X-27786Y54578D01*
X-28005Y54619D01*
X-28222Y54665D01*
X-28438Y54716D01*
X-28653Y54773D01*
X-28867Y54835D01*
X-29078Y54902D01*
X-29289Y54974D01*
X-29497Y55052D01*
X-29703Y55134D01*
X-29907Y55222D01*
X-30110Y55314D01*
X-30309Y55412D01*
X-30506Y55514D01*
X-30701Y55621D01*
X-30893Y55733D01*
X-31082Y55850D01*
X-31269Y55971D01*
X-31452Y56097D01*
X-31632Y56227D01*
X-31809Y56362D01*
X-31982Y56500D01*
X-32152Y56643D01*
X-32319Y56791D01*
X-32482Y56942D01*
X-32641Y57097D01*
X-32796Y57256D01*
X-32947Y57419D01*
X-33095Y57586D01*
X-33238Y57756D01*
X-33376Y57929D01*
X-33511Y58106D01*
X-33641Y58286D01*
X-33767Y58469D01*
X-33888Y58656D01*
X-34005Y58845D01*
X-34117Y59037D01*
X-34224Y59232D01*
X-34326Y59429D01*
X-34424Y59628D01*
X-34516Y59831D01*
X-34604Y60035D01*
X-34686Y60241D01*
X-34764Y60449D01*
X-34836Y60660D01*
X-34903Y60871D01*
X-34965Y61085D01*
X-35022Y61300D01*
X-35073Y61516D01*
X-35119Y61733D01*
X-35160Y61952D01*
X-35195Y62171D01*
X-35225Y62392D01*
X-35249Y62612D01*
X-35268Y62834D01*
X-35282Y63056D01*
X-35290Y63278D01*
X-35293Y63500D01*
D19*
X-26238Y63500D03*
M02*
