M48
;GenerationSoftware,Autodesk,EAGLE,9.6.0*%
;CreationDate,2020-05-01T18:42:38Z*%
FMAT,2
ICI,OFF
METRIC,TZ,000.000
T3C0.305
T2C1.016
T1C3.302
%
G90
M71
T1
X28448Y48768
X2540Y22860
X22860Y22860
X2540Y2540
X22860Y2540
X28448Y22860
X48768Y22860
X28448Y2540
X48768Y2540
X54356Y22860
X74676Y22860
X54356Y2540
X74676Y2540
X80264Y22860
X100584Y22860
X80264Y2540
X100584Y2540
X106172Y22860
X126492Y22860
X106172Y2540
X126492Y2540
X2540Y48768
X22860Y48768
X2540Y28448
X22860Y28448
X74676Y74676
X48768Y48768
X28448Y28448
X48768Y28448
X54356Y48768
X74676Y48768
X54356Y28448
X74676Y28448
X80264Y48768
X100584Y48768
X80264Y28448
X100584Y28448
X106172Y48768
X126492Y48768
X106172Y28448
X126492Y28448
X2540Y74676
X22860Y74676
X2540Y54356
X22860Y54356
X28448Y74676
X48768Y74676
X28448Y54356
X48768Y54356
X54356Y74676
X126492Y106172
X54356Y54356
X74676Y54356
X80264Y74676
X100584Y74676
X80264Y54356
X100584Y54356
X106172Y74676
X126492Y74676
X106172Y54356
X126492Y54356
X2540Y100584
X22860Y100584
X2540Y80264
X22860Y80264
X28448Y100584
X48768Y100584
X28448Y80264
X48768Y80264
X54356Y100584
X74676Y100584
X54356Y80264
X74676Y80264
X80264Y100584
X100584Y100584
X80264Y80264
X100584Y80264
X106172Y100584
X126492Y100584
X106172Y80264
X126492Y80264
X2540Y126492
X22860Y126492
X2540Y106172
X22860Y106172
X28448Y126492
X48768Y126492
X28448Y106172
X48768Y106172
X54356Y126492
X74676Y126492
X54356Y106172
X74676Y106172
X80264Y126492
X100584Y126492
X80264Y106172
X100584Y106172
X106172Y126492
X126492Y126492
X106172Y106172
T2
X34798Y27178
X8890Y1270
X11430Y1270
X13970Y1270
X16510Y1270
X34798Y1270
X37338Y1270
X39878Y1270
X42418Y1270
X60706Y1270
X63246Y1270
X65786Y1270
X68326Y1270
X86614Y1270
X89154Y1270
X91694Y1270
X94234Y1270
X112522Y1270
X115062Y1270
X117602Y1270
X120142Y1270
X8890Y27178
X11430Y27178
X13970Y27178
X16510Y27178
X37338Y27178
X39878Y27178
X42418Y27178
X60706Y27178
X63246Y27178
X65786Y27178
X68326Y27178
X86614Y27178
X89154Y27178
X91694Y27178
X94234Y27178
X112522Y27178
X115062Y27178
X117602Y27178
X120142Y27178
X8890Y53086
X11430Y53086
X13970Y53086
X16510Y53086
X34798Y53086
X37338Y53086
X39878Y53086
X42418Y53086
X60706Y53086
X63246Y53086
X65786Y53086
X68326Y53086
X86614Y53086
X89154Y53086
X91694Y53086
X94234Y53086
X112522Y53086
X115062Y53086
X117602Y53086
X120142Y53086
X8890Y78994
X11430Y78994
X13970Y78994
X16510Y78994
X34798Y78994
X37338Y78994
X39878Y78994
X42418Y78994
X60706Y78994
X63246Y78994
X65786Y78994
X68326Y78994
X86614Y78994
X89154Y78994
X91694Y78994
X94234Y78994
X112522Y78994
X115062Y78994
X117602Y78994
X120142Y78994
X8890Y104902
X11430Y104902
X13970Y104902
X16510Y104902
X34798Y104902
X37338Y104902
X39878Y104902
X42418Y104902
X60706Y104902
X63246Y104902
X65786Y104902
X68326Y104902
X86614Y104902
X89154Y104902
X91694Y104902
X94234Y104902
X112522Y104902
X115062Y104902
X117602Y104902
X120142Y104902
T3
X68961Y62357
X59694Y60964
X68326Y59944
X60706Y60706
X65786Y60706
X61976Y69596
X67437Y69469
X56642Y60071
X84836Y65151
X96139Y64008
X85471Y60071
X90449Y65532
X92329Y59309
X96774Y62992
X82423Y58801
X81407Y66040
X94869Y62357
X85602Y60964
X94234Y59944
X86614Y60706
X91694Y60706
X87884Y69596
X93345Y69469
X82550Y60071
X110744Y65151
X122047Y64008
X111379Y60071
X116357Y65532
X118237Y59309
X122682Y62992
X108331Y58801
X107315Y66040
X120777Y62357
X111510Y60964
X120142Y59944
X112522Y60706
X117602Y60706
X113792Y69596
X119253Y69469
X108458Y60071
X7112Y91059
X18415Y89916
X7747Y85979
X12725Y91440
X14605Y85217
X19050Y88900
X4699Y84709
X3683Y91948
X17145Y88265
X7878Y86872
X16510Y85852
X8890Y86614
X13970Y86614
X10160Y95504
X15621Y95377
X4826Y85979
X33020Y91059
X44323Y89916
X33655Y85979
X38633Y91440
X40513Y85217
X44958Y88900
X30607Y84709
X29591Y91948
X43053Y88265
X33786Y86872
X42418Y85852
X34798Y86614
X39878Y86614
X36068Y95504
X41529Y95377
X30734Y85979
X58928Y91059
X70231Y89916
X59563Y85979
X64541Y91440
X66421Y85217
X70866Y88900
X56515Y84709
X55499Y91948
X68961Y88265
X59694Y86872
X68326Y85852
X60706Y86614
X65786Y86614
X61976Y95504
X67437Y95377
X56642Y85979
X84836Y91059
X96139Y89916
X85471Y85979
X90449Y91440
X92329Y85217
X96774Y88900
X82423Y84709
X81407Y91948
X94869Y88265
X85602Y86872
X94234Y85852
X86614Y86614
X112522Y8890
X87884Y95504
X93345Y95377
X82550Y85979
X110744Y91059
X122047Y89916
X111379Y85979
X116357Y91440
X118237Y85217
X122682Y88900
X108331Y84709
X107315Y91948
X120777Y88265
X111510Y86872
X120142Y85852
X112522Y86614
X117602Y86614
X113792Y95504
X119253Y95377
X108458Y85979
X7112Y116967
X18415Y115824
X7747Y111887
X12725Y117348
X14605Y111125
X19050Y114808
X4699Y110617
X3683Y117856
X17145Y114173
X7878Y112780
X16510Y111760
X8890Y112522
X13970Y112522
X10160Y121412
X15621Y121285
X4826Y111887
X33020Y116967
X44323Y115824
X33655Y111887
X38633Y117348
X40513Y111125
X44958Y114808
X30607Y110617
X29591Y117856
X43053Y114173
X33786Y112780
X42418Y111760
X34798Y112522
X39878Y112522
X36068Y121412
X41529Y121285
X30734Y111887
X58928Y116967
X70231Y115824
X59563Y111887
X64541Y117348
X66421Y111125
X70866Y114808
X56515Y110617
X55499Y117856
X68961Y114173
X59694Y112780
X68326Y111760
X60706Y112522
X65786Y112522
X61976Y121412
X67437Y121285
X56642Y111887
X84836Y116967
X96139Y115824
X85471Y111887
X90449Y117348
X92329Y111125
X96774Y114808
X82423Y110617
X81407Y117856
X94869Y114173
X85602Y112780
X94234Y111760
X86614Y112522
X91694Y112522
X87884Y121412
X93345Y121285
X82550Y111887
X110744Y116967
X122047Y115824
X111379Y111887
X116357Y117348
X118237Y111125
X122682Y114808
X108331Y110617
X107315Y117856
X120777Y114173
X111510Y112780
X120142Y111760
X112522Y112522
X117602Y112522
X113792Y121412
X119253Y121285
X108458Y111887
X7112Y13335
X18415Y12192
X7747Y8255
X12725Y13716
X14605Y7493
X19050Y11176
X4699Y6985
X3683Y14224
X17145Y10541
X7878Y9148
X16510Y8128
X8890Y8890
X13970Y8890
X10160Y17780
X15621Y17653
X4826Y8255
X33020Y13335
X44323Y12192
X33655Y8255
X38633Y13716
X40513Y7493
X44958Y11176
X30607Y6985
X29591Y14224
X43053Y10541
X33786Y9148
X42418Y8128
X34798Y8890
X39878Y8890
X36068Y17780
X41529Y17653
X30734Y8255
X58928Y13335
X70231Y12192
X59563Y8255
X64541Y13716
X66421Y7493
X70866Y11176
X56515Y6985
X55499Y14224
X68961Y10541
X59694Y9148
X68326Y8128
X60706Y8890
X65786Y8890
X61976Y17780
X67437Y17653
X56642Y8255
X84836Y13335
X96139Y12192
X85471Y8255
X90449Y13716
X92329Y7493
X96774Y11176
X82423Y6985
X81407Y14224
X94869Y10541
X85602Y9148
X94234Y8128
X86614Y8890
X91694Y8890
X87884Y17780
X93345Y17653
X82550Y8255
X110744Y13335
X122047Y12192
X111379Y8255
X116357Y13716
X118237Y7493
X122682Y11176
X108331Y6985
X107315Y14224
X120777Y10541
X111510Y9148
X120142Y8128
X117602Y8890
X113792Y17780
X119253Y17653
X108458Y8255
X7112Y39243
X18415Y38100
X7747Y34163
X12725Y39624
X14605Y33401
X19050Y37084
X4699Y32893
X3683Y40132
X17145Y36449
X7878Y35056
X16510Y34036
X8890Y34798
X13970Y34798
X10160Y43688
X15621Y43561
X4826Y34163
X33020Y39243
X44323Y38100
X33655Y34163
X38633Y39624
X40513Y33401
X44958Y37084
X30607Y32893
X29591Y40132
X43053Y36449
X33786Y35056
X42418Y34036
X34798Y34798
X39878Y34798
X36068Y43688
X41529Y43561
X30734Y34163
X58928Y39243
X70231Y38100
X59563Y34163
X64541Y39624
X66421Y33401
X70866Y37084
X56515Y32893
X55499Y40132
X68961Y36449
X59694Y35056
X68326Y34036
X60706Y34798
X65786Y34798
X91694Y86614
X61976Y43688
X67437Y43561
X56642Y34163
X84836Y39243
X96139Y38100
X85471Y34163
X90449Y39624
X92329Y33401
X96774Y37084
X82423Y32893
X81407Y40132
X94869Y36449
X85602Y35056
X94234Y34036
X86614Y34798
X91694Y34798
X87884Y43688
X93345Y43561
X82550Y34163
X110744Y39243
X122047Y38100
X111379Y34163
X116357Y39624
X118237Y33401
X122682Y37084
X108331Y32893
X107315Y40132
X120777Y36449
X111510Y35056
X120142Y34036
X112522Y34798
X117602Y34798
X113792Y43688
X119253Y43561
X108458Y34163
X7112Y65151
X18415Y64008
X7747Y60071
X12725Y65532
X14605Y59309
X19050Y62992
X4699Y58801
X3683Y66040
X17145Y62357
X7878Y60964
X16510Y59944
X8890Y60706
X13970Y60706
X10160Y69596
X15621Y69469
X4826Y60071
X33020Y65151
X44323Y64008
X33655Y60071
X38633Y65532
X40513Y59309
X44958Y62992
X30607Y58801
X29591Y66040
X43053Y62357
X33786Y60964
X42418Y59944
X34798Y60706
X39878Y60706
X36068Y69596
X41529Y69469
X30734Y60071
X58928Y65151
X70231Y64008
X59563Y60071
X64541Y65532
X66421Y59309
X70866Y62992
X56515Y58801
X55499Y66040
M30